<?xml version="1.0" encoding="UTF-8" standalone="no"?>
<!-- Created with Inkscape (http://www.inkscape.org/) -->
<svg xmlns:svg="http://www.w3.org/2000/svg" xmlns="http://www.w3.org/2000/svg" xmlns:xlink="http://www.w3.org/1999/xlink" version="1.0" width="1676" height="1541" id="svg2">
  <defs id="defs4">
    <linearGradient id="linearGradient4116">
      <stop style="stop-color: rgb(0, 0, 0); stop-opacity: 1;" offset="0" id="stop4118"/>
      <stop style="stop-color: rgb(255, 255, 255); stop-opacity: 1;" offset="0.5" id="stop4124"/>
      <stop style="stop-color: rgb(0, 0, 0); stop-opacity: 1;" offset="1" id="stop4120"/>
    </linearGradient>
    <linearGradient x1="394.78284" y1="476.92804" x2="374.45355" y2="437.14233" id="linearGradient4122" xlink:href="#linearGradient4116" gradientUnits="userSpaceOnUse" gradientTransform="matrix(3.40317, 0, 0, 3.40317, -966.653, -1015.55)"/>
    <linearGradient x1="289.3551" y1="417.233" x2="352.90753" y2="456.47745" id="linearGradient5107" xlink:href="#linearGradient4116" gradientUnits="userSpaceOnUse" gradientTransform="matrix(3.40317, 0, 0, 3.40317, -966.653, -1015.55)"/>
    <linearGradient x1="299.14307" y1="428.98868" x2="376.45349" y2="414.41544" id="linearGradient5111" xlink:href="#linearGradient4116" gradientUnits="userSpaceOnUse" gradientTransform="matrix(0.96818, 3.26254, -3.26254, 0.96818, 1429.42, -1250.29)"/>
    <linearGradient x1="412.39908" y1="402.39682" x2="426.53271" y2="433.86307" id="linearGradient5121" xlink:href="#linearGradient4116" gradientUnits="userSpaceOnUse" gradientTransform="matrix(3.40317, 0, 0, 3.40317, -966.653, -1015.55)"/>
    <linearGradient x1="403.2818" y1="433.53098" x2="428.90967" y2="497.43515" id="linearGradient5131" xlink:href="#linearGradient4116" gradientUnits="userSpaceOnUse" gradientTransform="matrix(3.40317, 0, 0, 3.40317, -966.653, -1015.55)"/>
    <linearGradient x1="394.78284" y1="476.92804" x2="374.45355" y2="437.14233" id="linearGradient2192" xlink:href="#linearGradient4116" gradientUnits="userSpaceOnUse" gradientTransform="matrix(3.40317, 0, 0, 3.40317, -966.653, -1015.55)"/>
    <linearGradient x1="289.3551" y1="417.233" x2="352.90753" y2="456.47745" id="linearGradient2194" xlink:href="#linearGradient4116" gradientUnits="userSpaceOnUse" gradientTransform="matrix(3.40317, 0, 0, 3.40317, -966.653, -1015.55)"/>
    <linearGradient x1="299.14307" y1="428.98868" x2="376.45349" y2="414.41544" id="linearGradient2196" xlink:href="#linearGradient4116" gradientUnits="userSpaceOnUse" gradientTransform="matrix(0.96818, 3.26254, -3.26254, 0.96818, 1429.42, -1250.29)"/>
    <linearGradient x1="412.39908" y1="402.39682" x2="426.53271" y2="433.86307" id="linearGradient2198" xlink:href="#linearGradient4116" gradientUnits="userSpaceOnUse" gradientTransform="matrix(3.40317, 0, 0, 3.40317, -966.653, -1015.55)"/>
    <linearGradient x1="403.2818" y1="433.53098" x2="428.90967" y2="497.43515" id="linearGradient2200" xlink:href="#linearGradient4116" gradientUnits="userSpaceOnUse" gradientTransform="matrix(3.40317, 0, 0, 3.40317, -966.653, -1015.55)"/>
    <linearGradient x1="394.78284" y1="476.92804" x2="374.45355" y2="437.14233" id="linearGradient2236" xlink:href="#linearGradient4116" gradientUnits="userSpaceOnUse" gradientTransform="matrix(3.40317, 0, 0, 3.40317, -966.653, -1015.55)"/>
    <linearGradient x1="289.3551" y1="417.233" x2="352.90753" y2="456.47745" id="linearGradient2238" xlink:href="#linearGradient4116" gradientUnits="userSpaceOnUse" gradientTransform="matrix(3.40317, 0, 0, 3.40317, -966.653, -1015.55)"/>
    <linearGradient x1="299.14307" y1="428.98868" x2="376.45349" y2="414.41544" id="linearGradient2240" xlink:href="#linearGradient4116" gradientUnits="userSpaceOnUse" gradientTransform="matrix(0.96818, 3.26254, -3.26254, 0.96818, 1429.42, -1250.29)"/>
    <linearGradient x1="412.39908" y1="402.39682" x2="426.53271" y2="433.86307" id="linearGradient2242" xlink:href="#linearGradient4116" gradientUnits="userSpaceOnUse" gradientTransform="matrix(3.40317, 0, 0, 3.40317, -966.653, -1015.55)"/>
    <linearGradient x1="403.2818" y1="433.53098" x2="428.90967" y2="497.43515" id="linearGradient2244" xlink:href="#linearGradient4116" gradientUnits="userSpaceOnUse" gradientTransform="matrix(3.40317, 0, 0, 3.40317, -966.653, -1015.55)"/>
    <linearGradient x1="394.78284" y1="476.92804" x2="374.45355" y2="437.14233" id="linearGradient2262" xlink:href="#linearGradient4116" gradientUnits="userSpaceOnUse" gradientTransform="matrix(3.40317, 0, 0, 3.40317, -966.653, -1015.55)"/>
    <linearGradient x1="289.3551" y1="417.233" x2="352.90753" y2="456.47745" id="linearGradient2264" xlink:href="#linearGradient4116" gradientUnits="userSpaceOnUse" gradientTransform="matrix(3.40317, 0, 0, 3.40317, -966.653, -1015.55)"/>
    <linearGradient x1="299.14307" y1="428.98868" x2="376.45349" y2="414.41544" id="linearGradient2266" xlink:href="#linearGradient4116" gradientUnits="userSpaceOnUse" gradientTransform="matrix(0.96818, 3.26254, -3.26254, 0.96818, 1429.42, -1250.29)"/>
    <linearGradient x1="412.39908" y1="402.39682" x2="426.53271" y2="433.86307" id="linearGradient2268" xlink:href="#linearGradient4116" gradientUnits="userSpaceOnUse" gradientTransform="matrix(3.40317, 0, 0, 3.40317, -966.653, -1015.55)"/>
    <linearGradient x1="403.2818" y1="433.53098" x2="428.90967" y2="497.43515" id="linearGradient2270" xlink:href="#linearGradient4116" gradientUnits="userSpaceOnUse" gradientTransform="matrix(3.40317, 0, 0, 3.40317, -966.653, -1015.55)"/>
    <linearGradient x1="394.78284" y1="476.92804" x2="374.45355" y2="437.14233" id="linearGradient2288" xlink:href="#linearGradient4116" gradientUnits="userSpaceOnUse" gradientTransform="matrix(3.40317, 0, 0, 3.40317, -966.653, -1015.55)"/>
    <linearGradient x1="289.3551" y1="417.233" x2="352.90753" y2="456.47745" id="linearGradient2290" xlink:href="#linearGradient4116" gradientUnits="userSpaceOnUse" gradientTransform="matrix(3.40317, 0, 0, 3.40317, -966.653, -1015.55)"/>
    <linearGradient x1="299.14307" y1="428.98868" x2="376.45349" y2="414.41544" id="linearGradient2292" xlink:href="#linearGradient4116" gradientUnits="userSpaceOnUse" gradientTransform="matrix(0.96818, 3.26254, -3.26254, 0.96818, 1429.42, -1250.29)"/>
    <linearGradient x1="412.39908" y1="402.39682" x2="426.53271" y2="433.86307" id="linearGradient2294" xlink:href="#linearGradient4116" gradientUnits="userSpaceOnUse" gradientTransform="matrix(3.40317, 0, 0, 3.40317, -966.653, -1015.55)"/>
    <linearGradient x1="403.2818" y1="433.53098" x2="428.90967" y2="497.43515" id="linearGradient2296" xlink:href="#linearGradient4116" gradientUnits="userSpaceOnUse" gradientTransform="matrix(3.40317, 0, 0, 3.40317, -966.653, -1015.55)"/>
  </defs>
  <g transform="translate(445.874, -159.746)" id="layer1">
    <path d="M 311.60175,379.49234 L 388.95832,165.27904 L 466.69476,379.84144 L 690.65613,380.70934 L 515.24393,512.36532 L 597.31522,736.68063 L 389.4916,592.95045 L 187.06949,736.89946 L 265.85144,514.66008 L 80.035217,380.702 L 311.60175,379.49234 z " style="fill: rgb(192, 192, 192); fill-opacity: 1; fill-rule: evenodd; stroke: none; stroke-width: 2; stroke-linecap: butt; stroke-linejoin: miter; stroke-miterlimit: 4; stroke-dasharray: none; stroke-opacity: 1;" id="path3145"/>
    <path d="M 389.4916,592.95045 L 187.06949,736.89946 L 388.67647,472.28164 L 389.4916,592.95045 z " style="fill: url(#linearGradient4122) rgb(0, 0, 0); fill-opacity: 1; fill-rule: evenodd; stroke: none; stroke-width: 2; stroke-linecap: butt; stroke-linejoin: miter; stroke-miterlimit: 4; stroke-dasharray: none; stroke-opacity: 1;" id="path3143"/>
    <path d="M 388.66487,472.26853 L 265.85144,514.66008 L 80.035217,380.702 L 388.66487,472.26853 z " style="fill: url(#linearGradient5107) rgb(0, 0, 0); fill-opacity: 1; fill-rule: evenodd; stroke: none; stroke-width: 2; stroke-linecap: butt; stroke-linejoin: miter; stroke-miterlimit: 4; stroke-dasharray: none; stroke-opacity: 1;" id="path4126"/>
    <path d="M 388.66698,472.29708 L 310.96053,379.16789 L 388.22117,167.38638 L 388.66698,472.29708 z " style="fill: url(#linearGradient5111) rgb(0, 0, 0); fill-opacity: 1; fill-rule: evenodd; stroke: none; stroke-width: 2; stroke-linecap: butt; stroke-linejoin: miter; stroke-miterlimit: 4; stroke-dasharray: none; stroke-opacity: 1;" id="path5109"/>
    <path d="M 466.69476,379.84144 L 690.65613,380.70934 L 388.68155,472.29422 L 466.69476,379.84144 z " style="fill: url(#linearGradient5121) rgb(0, 0, 0); fill-opacity: 1; fill-rule: evenodd; stroke: none; stroke-width: 2; stroke-linecap: butt; stroke-linejoin: miter; stroke-miterlimit: 4; stroke-dasharray: none; stroke-opacity: 1;" id="path5113"/>
    <path d="M 515.24393,512.36532 L 597.31522,736.68063 L 388.6807,472.31083 L 515.24393,512.36532 z " style="fill: url(#linearGradient5131) rgb(0, 0, 0); fill-opacity: 1; fill-rule: evenodd; stroke: none; stroke-width: 2; stroke-linecap: butt; stroke-linejoin: miter; stroke-miterlimit: 4; stroke-dasharray: none; stroke-opacity: 1;" id="path5123"/>
    <path d="M 311.60175,379.49234 L 388.95832,165.27904 L 466.69476,379.84144 L 690.65613,380.70934 L 515.24393,512.36532 L 597.31522,736.68063 L 389.4916,592.95045 L 187.06949,736.89946 L 265.85144,514.66008 L 80.035217,380.702 L 311.60175,379.49234 z " style="fill: none; fill-rule: evenodd; stroke: rgb(0, 0, 0); stroke-width: 6.80633; stroke-linecap: butt; stroke-linejoin: miter; stroke-miterlimit: 4; stroke-dasharray: none; stroke-opacity: 1;" id="path2170"/>
  </g>
  <g transform="translate(-74.632, 208.799)" id="g2176">
    <path d="M 311.60175,379.49234 L 388.95832,165.27904 L 466.69476,379.84144 L 690.65613,380.70934 L 515.24393,512.36532 L 597.31522,736.68063 L 389.4916,592.95045 L 187.06949,736.89946 L 265.85144,514.66008 L 80.035217,380.702 L 311.60175,379.49234 z " style="fill: rgb(192, 192, 192); fill-opacity: 1; fill-rule: evenodd; stroke: none; stroke-width: 2; stroke-linecap: butt; stroke-linejoin: miter; stroke-miterlimit: 4; stroke-dasharray: none; stroke-opacity: 1;" id="path2178"/>
    <path d="M 389.4916,592.95045 L 187.06949,736.89946 L 388.67647,472.28164 L 389.4916,592.95045 z " style="fill: url(#linearGradient2192) rgb(0, 0, 0); fill-opacity: 1; fill-rule: evenodd; stroke: none; stroke-width: 2; stroke-linecap: butt; stroke-linejoin: miter; stroke-miterlimit: 4; stroke-dasharray: none; stroke-opacity: 1;" id="path2180"/>
    <path d="M 388.66487,472.26853 L 265.85144,514.66008 L 80.035217,380.702 L 388.66487,472.26853 z " style="fill: url(#linearGradient2194) rgb(0, 0, 0); fill-opacity: 1; fill-rule: evenodd; stroke: none; stroke-width: 2; stroke-linecap: butt; stroke-linejoin: miter; stroke-miterlimit: 4; stroke-dasharray: none; stroke-opacity: 1;" id="path2182"/>
    <path d="M 388.66698,472.29708 L 310.96053,379.16789 L 388.22117,167.38638 L 388.66698,472.29708 z " style="fill: url(#linearGradient2196) rgb(0, 0, 0); fill-opacity: 1; fill-rule: evenodd; stroke: none; stroke-width: 2; stroke-linecap: butt; stroke-linejoin: miter; stroke-miterlimit: 4; stroke-dasharray: none; stroke-opacity: 1;" id="path2184"/>
    <path d="M 466.69476,379.84144 L 690.65613,380.70934 L 388.68155,472.29422 L 466.69476,379.84144 z " style="fill: url(#linearGradient2198) rgb(0, 0, 0); fill-opacity: 1; fill-rule: evenodd; stroke: none; stroke-width: 2; stroke-linecap: butt; stroke-linejoin: miter; stroke-miterlimit: 4; stroke-dasharray: none; stroke-opacity: 1;" id="path2186"/>
    <path d="M 515.24393,512.36532 L 597.31522,736.68063 L 388.6807,472.31083 L 515.24393,512.36532 z " style="fill: url(#linearGradient2200) rgb(0, 0, 0); fill-opacity: 1; fill-rule: evenodd; stroke: none; stroke-width: 2; stroke-linecap: butt; stroke-linejoin: miter; stroke-miterlimit: 4; stroke-dasharray: none; stroke-opacity: 1;" id="path2188"/>
    <path d="M 311.60175,379.49234 L 388.95832,165.27904 L 466.69476,379.84144 L 690.65613,380.70934 L 515.24393,512.36532 L 597.31522,736.68063 L 389.4916,592.95045 L 187.06949,736.89946 L 265.85144,514.66008 L 80.035217,380.702 L 311.60175,379.49234 z " style="fill: none; fill-rule: evenodd; stroke: rgb(0, 0, 0); stroke-width: 6.80633; stroke-linecap: butt; stroke-linejoin: miter; stroke-miterlimit: 4; stroke-dasharray: none; stroke-opacity: 1;" id="path2190"/>
  </g>
  <g transform="translate(140.779, 798.697)" id="g2220">
    <path d="M 311.60175,379.49234 L 388.95832,165.27904 L 466.69476,379.84144 L 690.65613,380.70934 L 515.24393,512.36532 L 597.31522,736.68063 L 389.4916,592.95045 L 187.06949,736.89946 L 265.85144,514.66008 L 80.035217,380.702 L 311.60175,379.49234 z " style="fill: rgb(192, 192, 192); fill-opacity: 1; fill-rule: evenodd; stroke: none; stroke-width: 2; stroke-linecap: butt; stroke-linejoin: miter; stroke-miterlimit: 4; stroke-dasharray: none; stroke-opacity: 1;" id="path2222"/>
    <path d="M 389.4916,592.95045 L 187.06949,736.89946 L 388.67647,472.28164 L 389.4916,592.95045 z " style="fill: url(#linearGradient2236) rgb(0, 0, 0); fill-opacity: 1; fill-rule: evenodd; stroke: none; stroke-width: 2; stroke-linecap: butt; stroke-linejoin: miter; stroke-miterlimit: 4; stroke-dasharray: none; stroke-opacity: 1;" id="path2224"/>
    <path d="M 388.66487,472.26853 L 265.85144,514.66008 L 80.035217,380.702 L 388.66487,472.26853 z " style="fill: url(#linearGradient2238) rgb(0, 0, 0); fill-opacity: 1; fill-rule: evenodd; stroke: none; stroke-width: 2; stroke-linecap: butt; stroke-linejoin: miter; stroke-miterlimit: 4; stroke-dasharray: none; stroke-opacity: 1;" id="path2226"/>
    <path d="M 388.66698,472.29708 L 310.96053,379.16789 L 388.22117,167.38638 L 388.66698,472.29708 z " style="fill: url(#linearGradient2240) rgb(0, 0, 0); fill-opacity: 1; fill-rule: evenodd; stroke: none; stroke-width: 2; stroke-linecap: butt; stroke-linejoin: miter; stroke-miterlimit: 4; stroke-dasharray: none; stroke-opacity: 1;" id="path2228"/>
    <path d="M 466.69476,379.84144 L 690.65613,380.70934 L 388.68155,472.29422 L 466.69476,379.84144 z " style="fill: url(#linearGradient2242) rgb(0, 0, 0); fill-opacity: 1; fill-rule: evenodd; stroke: none; stroke-width: 2; stroke-linecap: butt; stroke-linejoin: miter; stroke-miterlimit: 4; stroke-dasharray: none; stroke-opacity: 1;" id="path2230"/>
    <path d="M 515.24393,512.36532 L 597.31522,736.68063 L 388.6807,472.31083 L 515.24393,512.36532 z " style="fill: url(#linearGradient2244) rgb(0, 0, 0); fill-opacity: 1; fill-rule: evenodd; stroke: none; stroke-width: 2; stroke-linecap: butt; stroke-linejoin: miter; stroke-miterlimit: 4; stroke-dasharray: none; stroke-opacity: 1;" id="path2232"/>
    <path d="M 311.60175,379.49234 L 388.95832,165.27904 L 466.69476,379.84144 L 690.65613,380.70934 L 515.24393,512.36532 L 597.31522,736.68063 L 389.4916,592.95045 L 187.06949,736.89946 L 265.85144,514.66008 L 80.035217,380.702 L 311.60175,379.49234 z " style="fill: none; fill-rule: evenodd; stroke: rgb(0, 0, 0); stroke-width: 6.80633; stroke-linecap: butt; stroke-linejoin: miter; stroke-miterlimit: 4; stroke-dasharray: none; stroke-opacity: 1;" id="path2234"/>
  </g>
  <g transform="translate(771.246, 798.54)" id="g2246">
    <path d="M 311.60175,379.49234 L 388.95832,165.27904 L 466.69476,379.84144 L 690.65613,380.70934 L 515.24393,512.36532 L 597.31522,736.68063 L 389.4916,592.95045 L 187.06949,736.89946 L 265.85144,514.66008 L 80.035217,380.702 L 311.60175,379.49234 z " style="fill: rgb(192, 192, 192); fill-opacity: 1; fill-rule: evenodd; stroke: none; stroke-width: 2; stroke-linecap: butt; stroke-linejoin: miter; stroke-miterlimit: 4; stroke-dasharray: none; stroke-opacity: 1;" id="path2248"/>
    <path d="M 389.4916,592.95045 L 187.06949,736.89946 L 388.67647,472.28164 L 389.4916,592.95045 z " style="fill: url(#linearGradient2262) rgb(0, 0, 0); fill-opacity: 1; fill-rule: evenodd; stroke: none; stroke-width: 2; stroke-linecap: butt; stroke-linejoin: miter; stroke-miterlimit: 4; stroke-dasharray: none; stroke-opacity: 1;" id="path2250"/>
    <path d="M 388.66487,472.26853 L 265.85144,514.66008 L 80.035217,380.702 L 388.66487,472.26853 z " style="fill: url(#linearGradient2264) rgb(0, 0, 0); fill-opacity: 1; fill-rule: evenodd; stroke: none; stroke-width: 2; stroke-linecap: butt; stroke-linejoin: miter; stroke-miterlimit: 4; stroke-dasharray: none; stroke-opacity: 1;" id="path2252"/>
    <path d="M 388.66698,472.29708 L 310.96053,379.16789 L 388.22117,167.38638 L 388.66698,472.29708 z " style="fill: url(#linearGradient2266) rgb(0, 0, 0); fill-opacity: 1; fill-rule: evenodd; stroke: none; stroke-width: 2; stroke-linecap: butt; stroke-linejoin: miter; stroke-miterlimit: 4; stroke-dasharray: none; stroke-opacity: 1;" id="path2254"/>
    <path d="M 466.69476,379.84144 L 690.65613,380.70934 L 388.68155,472.29422 L 466.69476,379.84144 z " style="fill: url(#linearGradient2268) rgb(0, 0, 0); fill-opacity: 1; fill-rule: evenodd; stroke: none; stroke-width: 2; stroke-linecap: butt; stroke-linejoin: miter; stroke-miterlimit: 4; stroke-dasharray: none; stroke-opacity: 1;" id="path2256"/>
    <path d="M 515.24393,512.36532 L 597.31522,736.68063 L 388.6807,472.31083 L 515.24393,512.36532 z " style="fill: url(#linearGradient2270) rgb(0, 0, 0); fill-opacity: 1; fill-rule: evenodd; stroke: none; stroke-width: 2; stroke-linecap: butt; stroke-linejoin: miter; stroke-miterlimit: 4; stroke-dasharray: none; stroke-opacity: 1;" id="path2258"/>
    <path d="M 311.60175,379.49234 L 388.95832,165.27904 L 466.69476,379.84144 L 690.65613,380.70934 L 515.24393,512.36532 L 597.31522,736.68063 L 389.4916,592.95045 L 187.06949,736.89946 L 265.85144,514.66008 L 80.035217,380.702 L 311.60175,379.49234 z " style="fill: none; fill-rule: evenodd; stroke: rgb(0, 0, 0); stroke-width: 6.80633; stroke-linecap: butt; stroke-linejoin: miter; stroke-miterlimit: 4; stroke-dasharray: none; stroke-opacity: 1;" id="path2260"/>
  </g>
  <g transform="translate(979.773, 208.191)" id="g2272">
    <path d="M 311.60175,379.49234 L 388.95832,165.27904 L 466.69476,379.84144 L 690.65613,380.70934 L 515.24393,512.36532 L 597.31522,736.68063 L 389.4916,592.95045 L 187.06949,736.89946 L 265.85144,514.66008 L 80.035217,380.702 L 311.60175,379.49234 z " style="fill: rgb(192, 192, 192); fill-opacity: 1; fill-rule: evenodd; stroke: none; stroke-width: 2; stroke-linecap: butt; stroke-linejoin: miter; stroke-miterlimit: 4; stroke-dasharray: none; stroke-opacity: 1;" id="path2274"/>
    <path d="M 389.4916,592.95045 L 187.06949,736.89946 L 388.67647,472.28164 L 389.4916,592.95045 z " style="fill: url(#linearGradient2288) rgb(0, 0, 0); fill-opacity: 1; fill-rule: evenodd; stroke: none; stroke-width: 2; stroke-linecap: butt; stroke-linejoin: miter; stroke-miterlimit: 4; stroke-dasharray: none; stroke-opacity: 1;" id="path2276"/>
    <path d="M 388.66487,472.26853 L 265.85144,514.66008 L 80.035217,380.702 L 388.66487,472.26853 z " style="fill: url(#linearGradient2290) rgb(0, 0, 0); fill-opacity: 1; fill-rule: evenodd; stroke: none; stroke-width: 2; stroke-linecap: butt; stroke-linejoin: miter; stroke-miterlimit: 4; stroke-dasharray: none; stroke-opacity: 1;" id="path2278"/>
    <path d="M 388.66698,472.29708 L 310.96053,379.16789 L 388.22117,167.38638 L 388.66698,472.29708 z " style="fill: url(#linearGradient2292) rgb(0, 0, 0); fill-opacity: 1; fill-rule: evenodd; stroke: none; stroke-width: 2; stroke-linecap: butt; stroke-linejoin: miter; stroke-miterlimit: 4; stroke-dasharray: none; stroke-opacity: 1;" id="path2280"/>
    <path d="M 466.69476,379.84144 L 690.65613,380.70934 L 388.68155,472.29422 L 466.69476,379.84144 z " style="fill: url(#linearGradient2294) rgb(0, 0, 0); fill-opacity: 1; fill-rule: evenodd; stroke: none; stroke-width: 2; stroke-linecap: butt; stroke-linejoin: miter; stroke-miterlimit: 4; stroke-dasharray: none; stroke-opacity: 1;" id="path2282"/>
    <path d="M 515.24393,512.36532 L 597.31522,736.68063 L 388.6807,472.31083 L 515.24393,512.36532 z " style="fill: url(#linearGradient2296) rgb(0, 0, 0); fill-opacity: 1; fill-rule: evenodd; stroke: none; stroke-width: 2; stroke-linecap: butt; stroke-linejoin: miter; stroke-miterlimit: 4; stroke-dasharray: none; stroke-opacity: 1;" id="path2284"/>
    <path d="M 311.60175,379.49234 L 388.95832,165.27904 L 466.69476,379.84144 L 690.65613,380.70934 L 515.24393,512.36532 L 597.31522,736.68063 L 389.4916,592.95045 L 187.06949,736.89946 L 265.85144,514.66008 L 80.035217,380.702 L 311.60175,379.49234 z " style="fill: none; fill-rule: evenodd; stroke: rgb(0, 0, 0); stroke-width: 6.80633; stroke-linecap: butt; stroke-linejoin: miter; stroke-miterlimit: 4; stroke-dasharray: none; stroke-opacity: 1;" id="path2286"/>
  </g>
</svg>